<svg width="202" height="64" viewBox="0 0 202 64" fill="none" xmlns="http://www.w3.org/2000/svg">
  <rect width="202" height="64" fill="black"/>
  <rect x="10" y="10" width="182" height="44" fill="black"/>
  <path d="M190.689 36.4297H11.3115V53.6114H101H190.689V36.4297Z" fill="#FF4813"/>
  <mask id="path-2-outside-1_185_1074" maskUnits="userSpaceOnUse" x="10" y="10" width="182" height="21" fill="black">
    <rect fill="white" x="10" y="10" width="182" height="21"/>
    <path d="M11 29.125V12.45L13.6241 11H30.9428V13.5893H13.6241V26.5357H30.9428V29.125H11Z"/>
    <path
      d="M36.7127 24.2054V29.125H34.0886V12.45L36.7127 11H51.4074L54.0314 12.45V29.125H51.4074V22.1339H42.6168L40.8849 24.2054H36.7127ZM36.7127 21.6161H39.6516L41.3835 19.5446H51.4074V13.5893H36.7127V21.6161Z"/>
    <path
      d="M70.2975 29.125L62.714 20.0625H59.8013V29.125H57.1772V12.45L59.8013 11H73.496L76.1201 12.45V20.6839L73.496 22.1339H66.8571L70.5308 26.5357H76.1201V29.125H70.2975ZM59.8013 17.4732H63.9735L65.7054 19.5446H73.496V13.5893H59.8013V17.4732Z"/>
    <path
      d="M93.3861 29.125L85.8026 20.0625H82.8899V29.125H80.2659V12.45L82.8899 11H97.5846L100.209 12.45V20.6839L97.5846 22.1339H90.9458L94.6194 26.5357H100.209V29.125H93.3861ZM82.8899 17.4732H87.0622L88.794 19.5446H97.5846V13.5893H82.8899V17.4732Z"/>
    <path
      d="M120.673 29.125H105.979L103.355 27.675V12.45L105.979 11H120.673L123.297 12.45V27.675L120.673 29.125ZM105.979 26.5357H120.673V13.5893H105.979V26.5357Z"/>
    <path d="M126.443 13.5893V11H146.386V13.5893H137.727V29.125H135.102V13.5893H126.443Z"/>
    <path d="M149.532 29.125V11H152.156V26.5357H169.475V29.125H149.532Z"/>
    <path
      d="M171.057 22.1339V11H173.681V19.5446H174.285L176.017 17.4732H186.041L187.772 19.5446H188.376V11H191V22.1339H186.539L184.807 20.0625H182.341V29.125H179.717V20.0625H177.25L175.518 22.1339H171.057Z"/>
  </mask>
  <path d="M11 29.125V12.45L13.6241 11H30.9428V13.5893H13.6241V26.5357H30.9428V29.125H11Z" fill="white"/>
  <path
    d="M36.7127 24.2054V29.125H34.0886V12.45L36.7127 11H51.4074L54.0314 12.45V29.125H51.4074V22.1339H42.6168L40.8849 24.2054H36.7127ZM36.7127 21.6161H39.6516L41.3835 19.5446H51.4074V13.5893H36.7127V21.6161Z"
    fill="white"/>
  <path
    d="M70.2975 29.125L62.714 20.0625H59.8013V29.125H57.1772V12.45L59.8013 11H73.496L76.1201 12.45V20.6839L73.496 22.1339H66.8571L70.5308 26.5357H76.1201V29.125H70.2975ZM59.8013 17.4732H63.9735L65.7054 19.5446H73.496V13.5893H59.8013V17.4732Z"
    fill="white"/>
  <path
    d="M93.3861 29.125L85.8026 20.0625H82.8899V29.125H80.2659V12.45L82.8899 11H97.5846L100.209 12.45V20.6839L97.5846 22.1339H90.9458L94.6194 26.5357H100.209V29.125H93.3861ZM82.8899 17.4732H87.0622L88.794 19.5446H97.5846V13.5893H82.8899V17.4732Z"
    fill="white"/>
  <path
    d="M120.673 29.125H105.979L103.355 27.675V12.45L105.979 11H120.673L123.297 12.45V27.675L120.673 29.125ZM105.979 26.5357H120.673V13.5893H105.979V26.5357Z"
    fill="white"/>
  <path d="M126.443 13.5893V11H146.386V13.5893H137.727V29.125H135.102V13.5893H126.443Z" fill="white"/>
  <path d="M149.532 29.125V11H152.156V26.5357H169.475V29.125H149.532Z" fill="white"/>
  <path
    d="M171.057 22.1339V11H173.681V19.5446H174.285L176.017 17.4732H186.041L187.772 19.5446H188.376V11H191V22.1339H186.539L184.807 20.0625H182.341V29.125H179.717V20.0625H177.25L175.518 22.1339H171.057Z"
    fill="white"/>
  <path d="M11 29.125V12.45L13.6241 11H30.9428V13.5893H13.6241V26.5357H30.9428V29.125H11Z" stroke="white" stroke-width="2"
        mask="url(#path-2-outside-1_185_1074)"/>
  <path
    d="M36.7127 24.2054V29.125H34.0886V12.45L36.7127 11H51.4074L54.0314 12.45V29.125H51.4074V22.1339H42.6168L40.8849 24.2054H36.7127ZM36.7127 21.6161H39.6516L41.3835 19.5446H51.4074V13.5893H36.7127V21.6161Z"
    stroke="white" stroke-width="2" mask="url(#path-2-outside-1_185_1074)"/>
  <path
    d="M70.2975 29.125L62.714 20.0625H59.8013V29.125H57.1772V12.45L59.8013 11H73.496L76.1201 12.45V20.6839L73.496 22.1339H66.8571L70.5308 26.5357H76.1201V29.125H70.2975ZM59.8013 17.4732H63.9735L65.7054 19.5446H73.496V13.5893H59.8013V17.4732Z"
    stroke="white" stroke-width="2" mask="url(#path-2-outside-1_185_1074)"/>
  <path
    d="M93.3861 29.125L85.8026 20.0625H82.8899V29.125H80.2659V12.45L82.8899 11H97.5846L100.209 12.45V20.6839L97.5846 22.1339H90.9458L94.6194 26.5357H100.209V29.125H93.3861ZM82.8899 17.4732H87.0622L88.794 19.5446H97.5846V13.5893H82.8899V17.4732Z"
    stroke="white" stroke-width="2" mask="url(#path-2-outside-1_185_1074)"/>
  <path
    d="M120.673 29.125H105.979L103.355 27.675V12.45L105.979 11H120.673L123.297 12.45V27.675L120.673 29.125ZM105.979 26.5357H120.673V13.5893H105.979V26.5357Z"
    stroke="white" stroke-width="2" mask="url(#path-2-outside-1_185_1074)"/>
  <path d="M126.443 13.5893V11H146.386V13.5893H137.727V29.125H135.102V13.5893H126.443Z" stroke="white" stroke-width="2"
        mask="url(#path-2-outside-1_185_1074)"/>
  <path d="M149.532 29.125V11H152.156V26.5357H169.475V29.125H149.532Z" stroke="white" stroke-width="2"
        mask="url(#path-2-outside-1_185_1074)"/>
  <path
    d="M171.057 22.1339V11H173.681V19.5446H174.285L176.017 17.4732H186.041L187.772 19.5446H188.376V11H191V22.1339H186.539L184.807 20.0625H182.341V29.125H179.717V20.0625H177.25L175.518 22.1339H171.057Z"
    stroke="white" stroke-width="2" mask="url(#path-2-outside-1_185_1074)"/>
</svg>
