<svg version="1.1" id="Ebene_1" xmlns="http://www.w3.org/2000/svg" x="0" y="0" viewBox="155 276 285 43" style="enable-background:new 0 0 595.3 595.3" xml:space="preserve"><style>.st1{fill-rule:evenodd;clip-rule:evenodd}</style><path style="fill:#033572" d="M172.2 276.3h19L179.3 296h3.1l11.9-19.7h19.1L201.6 296h13.2l-5.3 8.8h-13.3l10.4 14.2h-19.1l-10.3-14.2h-3.3l10.3 14.2h-18.9L155 304.8l17.2-28.5z"/><path d="M237.7 312.3h5.8v-11.5h10.8v11.5h5.9v-26.7h-5.9v10.3h-10.8v-10.3h-5.8v26.7z"/><path class="st1" d="M274.4 304.8c0 1.2-.1 4.4-4.3 4.4-1.7 0-3.2-.5-3.2-2.5 0-1.9 1.5-2.5 3.1-2.8 1.6-.3 3.5-.3 4.4-1.1v2zm-6.9-5.9c.2-2.1 1.5-2.9 3.5-2.9 1.9 0 3.4.3 3.4 2.6 0 2.2-3 2.1-6.3 2.5-3.3.4-6.6 1.5-6.6 5.9 0 4 2.9 5.8 6.6 5.8 2.4 0 4.8-.6 6.5-2.4 0 .6.2 1.3.4 1.9h5.4c-.5-.8-.7-2.5-.7-4.3v-10c0-4.6-4.6-5.5-8.5-5.5-4.3 0-8.8 1.5-9.1 6.5h5.4v-.1zM281.4 319.1h5.3v-9.2h.1c1.3 1.9 3.5 2.9 5.8 2.9 5.6 0 8.5-4.8 8.5-10 0-5.5-2.7-10.4-8.8-10.4-2.4 0-4.5.9-5.8 3h-.1V293h-5v26.1zm9.8-10.3c-3.4 0-4.6-3-4.6-6.1 0-3.1 1.1-6.2 4.6-6.2 3.4 0 4.6 3.2 4.6 6.2 0 3.2-1.1 6.1-4.6 6.1zM314.7 304.8c0 1.2-.1 4.4-4.3 4.4-1.7 0-3.2-.5-3.2-2.5 0-1.9 1.5-2.5 3.1-2.8 1.6-.3 3.5-.3 4.4-1.1v2zm-7-5.9c.2-2.1 1.5-2.9 3.5-2.9 1.9 0 3.4.3 3.4 2.6 0 2.2-3 2.1-6.3 2.5-3.3.4-6.6 1.5-6.6 5.9 0 4 2.9 5.8 6.6 5.8 2.4 0 4.8-.6 6.5-2.4 0 .6.2 1.3.4 1.9h5.4c-.5-.8-.7-2.5-.7-4.3v-10c0-4.6-4.6-5.5-8.5-5.5-4.3 0-8.8 1.5-9.1 6.5h5.4v-.1zM341 293h-5v2.6h-.1c-1.3-2.2-3.2-3.1-5.8-3.1-5.4 0-8.3 4.6-8.3 9.6 0 5.3 2.5 9.7 8.3 9.7 2.3 0 4.6-1 5.8-3h.1v2.5c0 2.8-1.3 4.8-4.3 4.8-1.9 0-3.5-.7-4-2.7h-5.3c.3 4.4 4.7 6.2 8.5 6.2 8.9 0 10-5.4 10-8.6v-18h.1zm-9.6 14.8c-3.2 0-4.3-3-4.3-5.8 0-2.9 1.3-5.5 4.3-5.5 3.4 0 4.5 2.8 4.5 5.9 0 2.8-1.4 5.4-4.5 5.4z"/><path d="M342.4 304.4h11.3v-4.6h-11.3v4.6zM355.1 312.3H374v-4.9h-13v-21.8h-5.9v26.7zM375.2 312.3h5.3v-26.7h-5.3v26.7z"/><path class="st1" d="M381.7 302.7c0 6.1 3.9 10.2 10 10.2s10-4 10-10.2c0-6.2-3.9-10.2-10-10.2s-10 4-10 10.2zm5.3 0c0-3.1 1.1-6.2 4.7-6.2s4.7 3.1 4.7 6.2-1.1 6.2-4.7 6.2c-3.6-.1-4.7-3.2-4.7-6.2z"/><path d="M420.3 293h-5.5l-4.2 13.2h-.1l-4.4-13.2h-5.7l6.8 18.1c.6 1.5 0 3.4-1.8 3.6-1 0-2.1-.1-3.1-.2v4.4c1.1.1 2.2.2 3.2.2 3.7 0 5.5-1.3 6.6-4.4l8.2-21.7z"/><path class="st1" d="M433.5 312.3h5v-26.7h-5.3v9.7h-.1c-1.2-1.9-3.5-2.9-5.8-2.9-5.7 0-8.6 4.8-8.6 10 0 5.3 2.8 10.3 8.7 10.3 2.5 0 4.6-.9 5.9-3h.1v2.6h.1zm-.1-9.7c0 3.2-1 6.2-4.6 6.2-3.3 0-4.7-3.2-4.7-6.2 0-3.2 1.2-6.2 4.7-6.2 3.5.1 4.6 3.1 4.6 6.2z"/></svg>