<svg xmlns="http://www.w3.org/2000/svg" viewBox="0 0 187.33 100.93"><g data-name="Warstwa 2"><g data-name="Warstwa 1"><path d="m124.11 54.23-15.26 23.49a46.38 46.38 0 0 0 2.88 3.73 47.33 47.33 0 0 0 60.93 9.34 25.2 25.2 0 0 0 .24-42.41L152.47 35.1l14.93 9.71L183.51 20C164-4.78 125.53 0 114.94 18.23c-7 12-4.27 27.27 7.4 34.85l20.44 13.28Z" style="fill:#0069ff"/><path d="M112.43 77.62c.5.65 1 1.29 1.54 1.91a44.35 44.35 0 0 0 57.13 8.76 22.25 22.25 0 0 0 .19-37.43l-20.43-13.28 3.21-4.95 12.46 8.1 13.33-20.5C171.19 10.32 157.94 5 144 6c-12 .86-22.1 6.11-26.5 13.71-6.39 11-3.65 24.28 6.37 30.84l20.52 13.34-3.22 5L125 58.31Zm35.2 23.26a50.11 50.11 0 0 1-41.21-21.48l-1.13-1.63L120 55.09c-12.19-8.44-15.5-24.76-7.64-38.34 5.4-9.27 17.34-15.64 31.19-16.62C160.21-1 176 5.71 185.84 18.19l1.3 1.66L171.49 44l3 2a28.14 28.14 0 0 1-.27 47.38 50.3 50.3 0 0 1-26.61 7.59"/><path d="m67.28 62.34-25.75 7.12-8.4-30.34 32.08-8.87 23.72-6.57A47.24 47.24 0 1 1 51 3.5l7.57 27.36" style="fill:#ff4f45"/><path d="M48.76 6.47a44.27 44.27 0 1 0 38.9 20.63l-50.9 14.08 6.82 24.65 22.91-6.33 1.57 5.69-28.59 7.9-10-36 25.75-7.12Zm1.37 94.46A50.2 50.2 0 0 1 50.24.54H53.25l7.69 27.78 29.22-8.08 1.2 1.76a50.47 50.47 0 0 1 2.5 53.48A49.89 49.89 0 0 1 63.58 99.1a50.45 50.45 0 0 1-13.45 1.83"/></g></g></svg>