<svg id="logo" xmlns="http://www.w3.org/2000/svg" width="182" height="27.41" viewBox="0 0 182 27.41">
  <path id="Path_267" data-name="Path 267" d="M182,22.034v4.923H161.661V.453h19.853V5.376H167.7V11.13h12.2V15.9H167.7v6.132Zm-31.034,4.923-.038-15.9-7.728,13.1h-2.739l-7.694-12.761V26.956h-5.7V.453h5.026l9.834,16.468L151.6.453h4.989l.075,26.5ZM111.6,22.034v4.923H91.263V.453h19.852V5.376H97.306V11.13h12.2V15.9h-12.2v6.132ZM60.266.453H72.2A16.649,16.649,0,0,1,79.762,2.1a12.271,12.271,0,0,1,5.1,4.636A13.127,13.127,0,0,1,86.685,13.7a13.125,13.125,0,0,1-1.819,6.966,12.247,12.247,0,0,1-5.1,4.637A16.639,16.639,0,0,1,72.2,26.95H60.266ZM71.9,21.921A8.785,8.785,0,0,0,78.187,19.7a7.863,7.863,0,0,0,2.346-6,7.862,7.862,0,0,0-2.346-6A8.785,8.785,0,0,0,71.9,5.49H66.346V21.92H71.9ZM41.315,27.41a15.212,15.212,0,0,1-7.373-1.778,13.137,13.137,0,0,1-5.142-4.9A13.479,13.479,0,0,1,26.944,13.7,13.462,13.462,0,0,1,28.8,6.682a13.133,13.133,0,0,1,5.142-4.9A15.215,15.215,0,0,1,41.314,0a15.1,15.1,0,0,1,7.353,1.778A13.276,13.276,0,0,1,55.684,13.7a13.276,13.276,0,0,1-7.017,11.926A15.1,15.1,0,0,1,41.315,27.41Zm0-5.225a8.263,8.263,0,0,0,4.2-1.079,7.7,7.7,0,0,0,2.945-3.01,8.894,8.894,0,0,0,1.07-4.39,8.9,8.9,0,0,0-1.07-4.391A7.709,7.709,0,0,0,45.517,6.3a8.719,8.719,0,0,0-8.4,0,7.7,7.7,0,0,0-2.945,3.01A8.894,8.894,0,0,0,33.1,13.7a8.9,8.9,0,0,0,1.07,4.391,7.708,7.708,0,0,0,2.945,3.01A8.271,8.271,0,0,0,41.315,22.184ZM14.221,27.41a14.965,14.965,0,0,1-7.26-1.76,13.057,13.057,0,0,1-5.1-4.885A13.529,13.529,0,0,1,0,13.7a13.539,13.539,0,0,1,1.856-7.06A13.066,13.066,0,0,1,6.96,1.76,15.062,15.062,0,0,1,14.258,0a15.179,15.179,0,0,1,6.174,1.212A12.346,12.346,0,0,1,25.066,4.7l-3.9,3.632a8.355,8.355,0,0,0-6.6-3.1A8.693,8.693,0,0,0,10.208,6.3a7.632,7.632,0,0,0-2.982,3.01A8.889,8.889,0,0,0,6.156,13.7,8.9,8.9,0,0,0,7.226,18.1a7.638,7.638,0,0,0,2.983,3.01,8.7,8.7,0,0,0,4.353,1.079,8.325,8.325,0,0,0,6.6-3.141l3.9,3.636A12.191,12.191,0,0,1,20.417,26.2,15.379,15.379,0,0,1,14.221,27.41Z"/>
  <path id="Path_268" data-name="Path 268" d="M214.426,8.7a3.444,3.444,0,1,1-3.413,3.443A3.429,3.429,0,0,1,214.426,8.7Zm0,10.859a3.444,3.444,0,1,1-3.413,3.444A3.429,3.429,0,0,1,214.426,19.564Z" transform="translate(-95.337 -3.933)" fill="#a60000" fill-rule="evenodd"/>
</svg>
