<svg xmlns="http://www.w3.org/2000/svg" width="127" height="36" fill="none"><g clip-path="url(#a)" fill="#1D1D1B"><path d="M.625 0v36h125.834V0H.625Zm124.573 34.739H1.886V1.26h123.312V34.74Z"/><path d="M12.796 23.999h1.542v-5.313h5.316v-1.372h-5.316v-5.313h-1.542v5.313H7.483v1.372h5.313v5.313ZM103.659 14.142c0-.971.343-1.085.914-1.085h5.228c2.286 0 2.885 1.485 2.885 3.314v10.485h1.485V16.37c0-2.97-1.229-4.657-4.37-4.657h-5.572c-1.598 0-2.055.943-2.055 2.4v12.741h1.485V14.143ZM86.118 26.856h7.428v-1.343h-7.428c-3.23 0-3.687-3.059-3.687-5.714h9.287c1.715 0 2.172-.744 2.172-2.485 0-4.285-2.772-5.77-6.514-5.77-5.115 0-6.487 2.743-6.487 7.858 0 4.313 1.057 7.457 5.229 7.457v-.003Zm1.286-13.972c3.115 0 4.944.971 4.944 4.686v.198c0 .287-.142.685-.627.685h-9.286c0-4.342 1.598-5.572 4.972-5.572l-.003.003ZM31.088 6.858h-1.599v2.116h1.599V6.858ZM31.034 27.114v-15.4H29.55v15.113c0 2.715-1.485 3.771-4.058 3.771-.199 0-.4-.028-.627-.028v1.372c.258.028.57.056.942.056 3.144 0 5.228-1.772 5.228-4.884ZM44.603 26.856h7.428v-1.343h-7.428c-3.23 0-3.687-3.059-3.687-5.714h9.287c1.715 0 2.172-.744 2.172-2.485 0-4.285-2.772-5.77-6.514-5.77-5.115 0-6.486 2.743-6.486 7.858 0 4.313 1.056 7.457 5.228 7.457v-.003Zm1.286-13.972c3.115 0 4.944.971 4.944 4.686v.198c0 .287-.142.685-.627.685H40.92c0-4.342 1.598-5.572 4.972-5.572l-.003.003ZM66.546 26.856h3.998c1.8 0 2.056-.915 2.056-2.201V6.858h-1.485v4.856h-4.572c-5.143 0-6.402 2.715-6.402 7.571 0 5.143 1.259 7.57 6.402 7.57h.003Zm0-13.798h4.572v11.171c0 .943-.114 1.287-1.142 1.287H66.55c-4.002 0-4.856-1.659-4.856-6.228 0-4.285.858-6.227 4.856-6.227l-.003-.003Z"/></g><defs><clipPath id="a"><path fill="#fff" transform="translate(.625)" d="M0 0h125.834v36H0z"/></clipPath></defs></svg>