<svg xmlns="http://www.w3.org/2000/svg" width="111mm" height="27mm" viewBox="0 0 111 27" xml:space="preserve"><defs><path id="b" d="M60.991 162.642h575.845v271.592H60.991z"/><path id="a" d="M53.73 116.173h336.901v197.494H53.73z"/><path id="c" d="M53.73 116.173h336.901v197.494H53.73z"/></defs><text xml:space="preserve" transform="matrix(.26458 0 0 .26458 -17.838 -42.322)" style="font-size:80px;text-align:start;writing-mode:lr-tb;direction:ltr;white-space:pre;shape-inside:url(#b);display:inline;fill:#004f7c;stroke-width:1.00157;stroke-dasharray:none"><tspan x="60.99" y="235.433"><tspan style="font-weight:600;font-family:Sora;-inkscape-font-specification:'Sora Semi-Bold';fill:#004f7c">Res      vest</tspan></tspan></text><g transform="translate(39.557 .325)"><path style="display:inline;fill:#ff2800;fill-opacity:1;stroke:none;stroke-width:6.24928;stroke-dasharray:none;stroke-opacity:1" d="M12.5 0a12.5 12.5 0 0 0-7.98 2.899l3.563 3.563A7.5 7.5 0 0 1 12.5 5a7.5 7.5 0 0 1 4.43 1.45l3.56-3.56A12.5 12.5 0 0 0 12.5 0zm10.052 5.07-3.603 3.602A7.5 7.5 0 0 1 20 12.5a7.5 7.5 0 0 1-1.461 4.417l3.573 3.573A12.5 12.5 0 0 0 25 12.5a12.5 12.5 0 0 0-2.448-7.43zM2.47 5.092A12.5 12.5 0 0 0 0 12.5a12.5 12.5 0 0 0 2.899 7.98l3.563-3.563A7.5 7.5 0 0 1 5 12.5a7.5 7.5 0 0 1 1.061-3.817l-3.59-3.59zM8.683 18.94l-3.59 3.59A12.5 12.5 0 0 0 12.5 25a12.5 12.5 0 0 0 7.43-2.448l-3.613-3.613a7.5 7.5 0 0 1-3.817 1.06 7.5 7.5 0 0 1-3.817-1.06z"/><rect style="display:inline;fill:#ff2800;fill-opacity:1;stroke:none;stroke-width:.761176;stroke-dasharray:none;stroke-opacity:1" width="3.992" height="6.291" x="-5.85" y="26.335" ry="1.239" rx="0" transform="rotate(-45)"/></g></svg>